#tb 0: 1/25
0,          0,          0,        1,   299520, 0xbc71d699
0,          1,          1,        1,   299520, 0x3207e1f9
0,          2,          2,        1,   299520, 0xdd2087b5
0,          3,          3,        1,   299520, 0xb512c976
0,          4,          4,        1,   299520, 0x22957011
0,          5,          5,        1,   299520, 0x8ce04965
0,          6,          6,        1,   299520, 0x9cf37cba
0,          7,          7,        1,   299520, 0xd52f8b2d
0,          8,          8,        1,   299520, 0x2f55a94d
0,          9,          9,        1,   299520, 0x53d3cc42
0,         10,         10,        1,   299520, 0xbc33f3a1
0,         11,         11,        1,   299520, 0x5e67d0de
0,         12,         12,        1,   299520, 0x5708ecc5
0,         13,         13,        1,   299520, 0x104869c0
0,         14,         14,        1,   299520, 0xaf2a8638
0,         15,         15,        1,   299520, 0xbdf1d001
0,         16,         16,        1,   299520, 0xa3f71579
0,         17,         17,        1,   299520, 0x68cedb09
0,         18,         18,        1,   299520, 0xa4262d4d
0,         19,         19,        1,   299520, 0x99320c8d
0,         20,         20,        1,   299520, 0x57be6268
0,         21,         21,        1,   299520, 0xc7e14cfc
0,         22,         22,        1,   299520, 0x3d906541
0,         23,         23,        1,   299520, 0x804b2f29
0,         24,         24,        1,   299520, 0x93cf0ae2
0,         25,         25,        1,   299520, 0x0fd2f932
0,         26,         26,        1,   299520, 0xf869a25c
0,         27,         27,        1,   299520, 0xa2dc56cd
0,         28,         28,        1,   299520, 0x075b14a7
0,         29,         29,        1,   299520, 0x233b0085
0,         30,         30,        1,   299520, 0x80a69c4c
0,         31,         31,        1,   299520, 0xf45f21af
0,         32,         32,        1,   299520, 0x88dcab6e
0,         33,         33,        1,   299520, 0xc1df3e99
0,         34,         34,        1,   299520, 0xac298452
0,         35,         35,        1,   299520, 0x6b4cc1e3
0,         36,         36,        1,   299520, 0xfd39c597
0,         37,         37,        1,   299520, 0xe60f808c
0,         38,         38,        1,   299520, 0x27c47830
0,         39,         39,        1,   299520, 0x4fd9ec76
0,         40,         40,        1,   299520, 0x3249e084
0,         41,         41,        1,   299520, 0x40632223
0,         42,         42,        1,   299520, 0x9b68d213
0,         43,         43,        1,   299520, 0x9e210ed8
0,         44,         44,        1,   299520, 0x54489508
0,         45,         45,        1,   299520, 0xc799df16
0,         46,         46,        1,   299520, 0x020b2211
0,         47,         47,        1,   299520, 0xcc1a1683
